<svg id="Capa_1" enable-background="new 0 0 512 512" height="512" fill="#2F9599" viewBox="0 0 512 512" width="512" xmlns="http://www.w3.org/2000/svg"><g><path d="m386 432h-110v-40h110c5.523 0 10-4.477 10-10s-4.477-10-10-10h-120-50c-44.112 0-80-35.888-80-80s35.888-80 80-80h60v50c0 5.523 4.477 10 10 10h10v50c0 5.523 4.477 10 10 10h60c5.523 0 10-4.477 10-10v-50h10c5.523 0 10-4.477 10-10v-180c0-5.523-4.477-10-10-10h-10v-62c0-5.523-4.477-10-10-10h-60c-5.523 0-10 4.477-10 10v62h-10c-5.523 0-10 4.477-10 10v50h-60c-88.224 0-160 71.776-160 160 0 68.799 43.89 129.385 108.133 151.372l-27.078 54.156c-1.55 3.1-1.384 6.781.438 9.729s5.041 4.743 8.506 4.743h300c5.523 0 10-4.477 10-10 .001-38.598-31.401-70-69.999-70zm-90-340h80v160h-80zm-220 200c0-77.196 62.804-140 140-140h60v40h-60c-55.14 0-100 44.86-100 100 0 46.639 32.095 85.92 75.357 96.924l-18.188 36.376c-57.601-18.489-97.169-72.193-97.169-133.3zm86.18 200 50-100h43.82v50c0 5.523 4.477 10 10 10h120c24.146 0 44.349 17.206 48.996 40z"/></g></svg>
